<svg viewBox="0 0 534 489" fill="none" xmlns="http://www.w3.org/2000/svg"><g clip-path="url(#clip0_29_86)"><path d="M168.987 489L0.921499 4.65564C0.470602 3.35621 1.43553 2 2.81097 2H531.189C532.564 2 533.529 3.35621 533.079 4.65564L365.013 489" stroke="url(#paint0_linear_29_86)" stroke-width="1"></path><path d="M168.99 489L0.924194 4.65564C0.474197 3.35621 1.43921 2 2.81421 2H267" stroke="#26D6FF" stroke-width="1" class="animate-[dash_2s_linear_infinite]" stroke-dasharray="60,800" stroke-dashoffset="860"></path><path d="M365.01 489L533.076 4.65564C533.526 3.35621 532.561 2 531.186 2H267" stroke="#26D6FF" stroke-width="1" class="animate-[dash_2s_linear_infinite]" stroke-dasharray="60,800" stroke-dashoffset="860"></path><path d="M223.722 57H222.091L225.755 46.8182H227.53L231.194 57H229.563L226.685 48.6676H226.605L223.722 57ZM223.995 53.0128H229.285V54.3054H223.995V53.0128ZM234.483 57L231.659 46.8182H233.275L235.258 54.7031H235.353L237.416 46.8182H239.017L241.08 54.7081H241.175L243.153 46.8182H244.774L241.945 57H240.399L238.256 49.3736H238.177L236.034 57H234.483ZM246.86 57H245.229L248.893 46.8182H250.668L254.332 57H252.702L249.823 48.6676H249.743L246.86 57ZM247.133 53.0128H252.423V54.3054H247.133V53.0128ZM256.503 57V46.8182H260.132C260.921 46.8182 261.575 46.9541 262.096 47.2259C262.619 47.4976 263.01 47.8738 263.269 48.3544C263.527 48.8317 263.657 49.3835 263.657 50.0099C263.657 50.633 263.526 51.1816 263.264 51.6555C263.005 52.1262 262.614 52.4924 262.091 52.7543C261.57 53.0161 260.916 53.147 260.127 53.147H257.378V51.8246H259.988C260.485 51.8246 260.889 51.7533 261.201 51.6108C261.516 51.4683 261.746 51.2611 261.892 50.9893C262.038 50.7176 262.111 50.3911 262.111 50.0099C262.111 49.6255 262.036 49.2924 261.887 49.0107C261.741 48.7289 261.511 48.5135 261.196 48.3643C260.884 48.2119 260.475 48.1357 259.968 48.1357H258.039V57H256.503ZM261.529 52.4062L264.044 57H262.294L259.829 52.4062H261.529ZM266.226 57V46.8182H272.61V48.1406H267.762V51.2429H272.276V52.5604H267.762V55.6776H272.669V57H266.226ZM283.58 46.8182V57H282.168L276.992 49.5327H276.898V57H275.362V46.8182H276.783L281.964 54.2955H282.058V46.8182H283.58ZM286.521 57V46.8182H292.904V48.1406H288.057V51.2429H292.571V52.5604H288.057V55.6776H292.964V57H286.521ZM301.209 49.4929C301.156 49.0223 300.938 48.6577 300.553 48.3991C300.169 48.1373 299.685 48.0064 299.101 48.0064C298.684 48.0064 298.323 48.0727 298.018 48.2053C297.713 48.3345 297.476 48.5135 297.307 48.7422C297.141 48.9676 297.058 49.2244 297.058 49.5128C297.058 49.7547 297.114 49.9635 297.227 50.1392C297.343 50.3149 297.494 50.4624 297.68 50.5817C297.868 50.6977 298.071 50.7955 298.286 50.875C298.502 50.9512 298.709 51.0142 298.908 51.0639L299.902 51.3224C300.227 51.402 300.56 51.5097 300.901 51.6456C301.243 51.7815 301.559 51.9605 301.851 52.1825C302.142 52.4046 302.378 52.6797 302.557 53.0078C302.739 53.3359 302.83 53.7287 302.83 54.1861C302.83 54.7628 302.681 55.2749 302.383 55.7223C302.088 56.1697 301.658 56.5227 301.095 56.7812C300.535 57.0398 299.857 57.169 299.062 57.169C298.299 57.169 297.64 57.0481 297.083 56.8061C296.526 56.5642 296.09 56.2211 295.775 55.777C295.461 55.3295 295.287 54.7992 295.253 54.1861H296.795C296.824 54.554 296.944 54.8606 297.153 55.1058C297.365 55.3478 297.635 55.5284 297.963 55.6477C298.294 55.7637 298.657 55.8217 299.052 55.8217C299.486 55.8217 299.872 55.7538 300.21 55.6179C300.551 55.4787 300.82 55.2865 301.015 55.0412C301.211 54.7926 301.309 54.5026 301.309 54.1712C301.309 53.8696 301.223 53.6226 301.05 53.4304C300.881 53.2382 300.651 53.0791 300.359 52.9531C300.071 52.8272 299.744 52.7161 299.38 52.62L298.177 52.2919C297.361 52.0698 296.715 51.7434 296.238 51.3125C295.764 50.8816 295.527 50.3116 295.527 49.6023C295.527 49.0156 295.686 48.5036 296.004 48.0661C296.322 47.6286 296.753 47.2888 297.297 47.0469C297.84 46.8016 298.453 46.679 299.136 46.679C299.826 46.679 300.434 46.8 300.961 47.0419C301.491 47.2839 301.909 47.617 302.214 48.0412C302.519 48.4621 302.678 48.946 302.691 49.4929H301.209ZM310.919 49.4929C310.866 49.0223 310.647 48.6577 310.263 48.3991C309.878 48.1373 309.395 48.0064 308.811 48.0064C308.394 48.0064 308.032 48.0727 307.727 48.2053C307.422 48.3345 307.185 48.5135 307.016 48.7422C306.851 48.9676 306.768 49.2244 306.768 49.5128C306.768 49.7547 306.824 49.9635 306.937 50.1392C307.053 50.3149 307.204 50.4624 307.389 50.5817C307.578 50.6977 307.78 50.7955 307.996 50.875C308.211 50.9512 308.418 51.0142 308.617 51.0639L309.612 51.3224C309.936 51.402 310.27 51.5097 310.611 51.6456C310.952 51.7815 311.269 51.9605 311.56 52.1825C311.852 52.4046 312.087 52.6797 312.266 53.0078C312.449 53.3359 312.54 53.7287 312.54 54.1861C312.54 54.7628 312.391 55.2749 312.092 55.7223C311.797 56.1697 311.368 56.5227 310.805 56.7812C310.245 57.0398 309.567 57.169 308.771 57.169C308.009 57.169 307.35 57.0481 306.793 56.8061C306.236 56.5642 305.8 56.2211 305.485 55.777C305.17 55.3295 304.996 54.7992 304.963 54.1861H306.504C306.534 54.554 306.654 54.8606 306.862 55.1058C307.074 55.3478 307.345 55.5284 307.673 55.6477C308.004 55.7637 308.367 55.8217 308.761 55.8217C309.196 55.8217 309.582 55.7538 309.92 55.6179C310.261 55.4787 310.53 55.2865 310.725 55.0412C310.921 54.7926 311.019 54.5026 311.019 54.1712C311.019 53.8696 310.932 53.6226 310.76 53.4304C310.591 53.2382 310.361 53.0791 310.069 52.9531C309.781 52.8272 309.454 52.7161 309.09 52.62L307.886 52.2919C307.071 52.0698 306.425 51.7434 305.948 51.3125C305.474 50.8816 305.237 50.3116 305.237 49.6023C305.237 49.0156 305.396 48.5036 305.714 48.0661C306.032 47.6286 306.463 47.2888 307.007 47.0469C307.55 46.8016 308.163 46.679 308.846 46.679C309.535 46.679 310.144 46.8 310.671 47.0419C311.201 47.2839 311.618 47.617 311.923 48.0412C312.228 48.4621 312.387 48.946 312.401 49.4929H310.919Z" fill="#1799FD"></path><path d="M221.5 154V143.818H227.883V145.141H223.036V148.243H227.55V149.56H223.036V152.678H227.943V154H221.5ZM231.525 143.818L234.359 152.111H234.473L237.307 143.818H238.968L235.304 154H233.529L229.865 143.818H231.525ZM240.959 154H239.328L242.993 143.818H244.767L248.431 154H246.801L243.922 145.668H243.843L240.959 154ZM241.233 150.013H246.522V151.305H241.233V150.013ZM250.602 154V143.818H252.138V152.678H256.752V154H250.602ZM265.752 143.818H267.293V150.515C267.293 151.228 267.126 151.859 266.791 152.409C266.456 152.956 265.985 153.387 265.379 153.702C264.772 154.013 264.061 154.169 263.246 154.169C262.434 154.169 261.725 154.013 261.118 153.702C260.512 153.387 260.041 152.956 259.706 152.409C259.372 151.859 259.204 151.228 259.204 150.515V143.818H260.74V150.391C260.74 150.851 260.841 151.261 261.044 151.619C261.249 151.977 261.539 152.258 261.914 152.464C262.288 152.666 262.732 152.767 263.246 152.767C263.763 152.767 264.209 152.666 264.583 152.464C264.961 152.258 265.25 151.977 265.448 151.619C265.651 151.261 265.752 150.851 265.752 150.391V143.818ZM271.087 154H269.456L273.12 143.818H274.895L278.559 154H276.928L274.05 145.668H273.97L271.087 154ZM271.36 150.013H276.65V151.305H271.36V150.013ZM279.024 145.141V143.818H286.904V145.141H283.727V154H282.196V145.141H279.024ZM290.881 143.818V154H289.345V143.818H290.881ZM302.663 148.909C302.663 149.996 302.464 150.931 302.066 151.713C301.669 152.492 301.124 153.092 300.431 153.513C299.741 153.93 298.958 154.139 298.079 154.139C297.198 154.139 296.41 153.93 295.718 153.513C295.028 153.092 294.485 152.49 294.087 151.708C293.689 150.926 293.49 149.993 293.49 148.909C293.49 147.822 293.689 146.889 294.087 146.11C294.485 145.328 295.028 144.728 295.718 144.31C296.41 143.889 297.198 143.679 298.079 143.679C298.958 143.679 299.741 143.889 300.431 144.31C301.124 144.728 301.669 145.328 302.066 146.11C302.464 146.889 302.663 147.822 302.663 148.909ZM301.142 148.909C301.142 148.08 301.008 147.383 300.739 146.816C300.474 146.246 300.109 145.815 299.645 145.523C299.185 145.228 298.663 145.081 298.079 145.081C297.493 145.081 296.969 145.228 296.508 145.523C296.048 145.815 295.683 146.246 295.414 146.816C295.149 147.383 295.017 148.08 295.017 148.909C295.017 149.738 295.149 150.437 295.414 151.007C295.683 151.574 296.048 152.005 296.508 152.3C296.969 152.591 297.493 152.737 298.079 152.737C298.663 152.737 299.185 152.591 299.645 152.3C300.109 152.005 300.474 151.574 300.739 151.007C301.008 150.437 301.142 149.738 301.142 148.909ZM313.496 143.818V154H312.084L306.909 146.533H306.815V154H305.278V143.818H306.7L311.881 151.295H311.975V143.818H313.496Z" fill="#1799FD"></path><path d="M223.836 251H222.205L225.869 240.818H227.644L231.308 251H229.677L226.799 242.668H226.719L223.836 251ZM224.109 247.013H229.399V248.305H224.109V247.013ZM241.456 244.129H239.905C239.846 243.798 239.735 243.506 239.572 243.254C239.41 243.002 239.211 242.789 238.976 242.613C238.74 242.437 238.477 242.305 238.185 242.215C237.897 242.126 237.59 242.081 237.265 242.081C236.679 242.081 236.153 242.228 235.689 242.523C235.229 242.818 234.864 243.251 234.596 243.821C234.33 244.391 234.198 245.087 234.198 245.909C234.198 246.738 234.33 247.437 234.596 248.007C234.864 248.577 235.23 249.008 235.694 249.3C236.158 249.591 236.68 249.737 237.26 249.737C237.582 249.737 237.887 249.694 238.175 249.608C238.467 249.518 238.73 249.388 238.966 249.215C239.201 249.043 239.4 248.832 239.562 248.584C239.728 248.332 239.842 248.044 239.905 247.719L241.456 247.724C241.373 248.224 241.213 248.685 240.974 249.106C240.739 249.523 240.436 249.885 240.064 250.19C239.696 250.491 239.275 250.725 238.802 250.891C238.328 251.056 237.811 251.139 237.25 251.139C236.369 251.139 235.583 250.93 234.894 250.513C234.204 250.092 233.661 249.49 233.263 248.708C232.869 247.926 232.672 246.993 232.672 245.909C232.672 244.822 232.87 243.889 233.268 243.11C233.666 242.328 234.209 241.728 234.899 241.31C235.588 240.889 236.372 240.679 237.25 240.679C237.791 240.679 238.294 240.757 238.762 240.913C239.232 241.065 239.655 241.29 240.029 241.589C240.404 241.884 240.714 242.245 240.959 242.673C241.204 243.097 241.37 243.582 241.456 244.129ZM243.492 242.141V240.818H251.372V242.141H248.196V251H246.664V242.141H243.492ZM255.35 240.818V251H253.814V240.818H255.35ZM259.177 240.818L262.011 249.111H262.125L264.959 240.818H266.62L262.955 251H261.181L257.517 240.818H259.177ZM268.611 251H266.98L270.644 240.818H272.419L276.083 251H274.453L271.574 242.668H271.494L268.611 251ZM268.884 247.013H274.174V248.305H268.884V247.013ZM276.548 242.141V240.818H284.428V242.141H281.251V251H279.72V242.141H276.548ZM288.406 240.818V251H286.87V240.818H288.406ZM300.187 245.909C300.187 246.996 299.989 247.931 299.591 248.713C299.193 249.492 298.648 250.092 297.955 250.513C297.266 250.93 296.482 251.139 295.604 251.139C294.722 251.139 293.935 250.93 293.242 250.513C292.553 250.092 292.009 249.49 291.611 248.708C291.214 247.926 291.015 246.993 291.015 245.909C291.015 244.822 291.214 243.889 291.611 243.11C292.009 242.328 292.553 241.728 293.242 241.31C293.935 240.889 294.722 240.679 295.604 240.679C296.482 240.679 297.266 240.889 297.955 241.31C298.648 241.728 299.193 242.328 299.591 243.11C299.989 243.889 300.187 244.822 300.187 245.909ZM298.666 245.909C298.666 245.08 298.532 244.383 298.263 243.816C297.998 243.246 297.634 242.815 297.17 242.523C296.709 242.228 296.187 242.081 295.604 242.081C295.017 242.081 294.493 242.228 294.033 242.523C293.572 242.815 293.207 243.246 292.939 243.816C292.674 244.383 292.541 245.08 292.541 245.909C292.541 246.738 292.674 247.437 292.939 248.007C293.207 248.574 293.572 249.005 294.033 249.3C294.493 249.591 295.017 249.737 295.604 249.737C296.187 249.737 296.709 249.591 297.17 249.3C297.634 249.005 297.998 248.574 298.263 248.007C298.532 247.437 298.666 246.738 298.666 245.909ZM311.021 240.818V251H309.609L304.433 243.533H304.339V251H302.803V240.818H304.225L309.405 248.295H309.5V240.818H311.021Z" fill="#1799FD"></path><path d="M226.027 348V337.818H229.656C230.445 337.818 231.099 337.954 231.62 338.226C232.143 338.498 232.534 338.874 232.793 339.354C233.051 339.832 233.181 340.384 233.181 341.01C233.181 341.633 233.05 342.182 232.788 342.656C232.529 343.126 232.138 343.492 231.615 343.754C231.094 344.016 230.44 344.147 229.651 344.147H226.902V342.825H229.512C230.009 342.825 230.413 342.753 230.725 342.611C231.04 342.468 231.27 342.261 231.416 341.989C231.562 341.718 231.635 341.391 231.635 341.01C231.635 340.625 231.56 340.292 231.411 340.011C231.265 339.729 231.035 339.513 230.72 339.364C230.408 339.212 229.999 339.136 229.492 339.136H227.563V348H226.027ZM231.053 343.406L233.569 348H231.819L229.353 343.406H231.053ZM235.75 348V337.818H242.134V339.141H237.286V342.243H241.8V343.56H237.286V346.678H242.193V348H235.75ZM244.383 339.141V337.818H252.263V339.141H249.087V348H247.555V339.141H244.383ZM254.705 348V337.818H261.088V339.141H256.241V342.243H260.755V343.56H256.241V346.678H261.148V348H254.705ZM272.058 337.818V348H270.646L265.471 340.533H265.377V348H263.84V337.818H265.262L270.443 345.295H270.537V337.818H272.058ZM274.497 339.141V337.818H282.377V339.141H279.2V348H277.669V339.141H274.497ZM286.355 337.818V348H284.818V337.818H286.355ZM298.136 342.909C298.136 343.996 297.937 344.931 297.54 345.713C297.142 346.492 296.597 347.092 295.904 347.513C295.215 347.93 294.431 348.139 293.553 348.139C292.671 348.139 291.884 347.93 291.191 347.513C290.502 347.092 289.958 346.49 289.56 345.708C289.163 344.926 288.964 343.993 288.964 342.909C288.964 341.822 289.163 340.889 289.56 340.11C289.958 339.328 290.502 338.728 291.191 338.31C291.884 337.889 292.671 337.679 293.553 337.679C294.431 337.679 295.215 337.889 295.904 338.31C296.597 338.728 297.142 339.328 297.54 340.11C297.937 340.889 298.136 341.822 298.136 342.909ZM296.615 342.909C296.615 342.08 296.481 341.383 296.212 340.816C295.947 340.246 295.583 339.815 295.119 339.523C294.658 339.228 294.136 339.081 293.553 339.081C292.966 339.081 292.442 339.228 291.981 339.523C291.521 339.815 291.156 340.246 290.888 340.816C290.623 341.383 290.49 342.08 290.49 342.909C290.49 343.738 290.623 344.437 290.888 345.007C291.156 345.574 291.521 346.005 291.981 346.3C292.442 346.591 292.966 346.737 293.553 346.737C294.136 346.737 294.658 346.591 295.119 346.3C295.583 346.005 295.947 345.574 296.212 345.007C296.481 344.437 296.615 343.738 296.615 342.909ZM308.97 337.818V348H307.558L302.382 340.533H302.288V348H300.752V337.818H302.173L307.354 345.295H307.448V337.818H308.97Z" fill="#1799FD"></path><path d="M236.125 439.129H234.574C234.514 438.798 234.403 438.506 234.241 438.254C234.079 438.002 233.88 437.789 233.644 437.613C233.409 437.437 233.146 437.305 232.854 437.215C232.566 437.126 232.259 437.081 231.934 437.081C231.348 437.081 230.822 437.228 230.358 437.523C229.898 437.818 229.533 438.251 229.264 438.821C228.999 439.391 228.867 440.087 228.867 440.909C228.867 441.738 228.999 442.437 229.264 443.007C229.533 443.577 229.899 444.008 230.363 444.3C230.827 444.591 231.349 444.737 231.929 444.737C232.251 444.737 232.556 444.694 232.844 444.608C233.136 444.518 233.399 444.388 233.635 444.215C233.87 444.043 234.069 443.832 234.231 443.584C234.397 443.332 234.511 443.044 234.574 442.719L236.125 442.724C236.042 443.224 235.882 443.685 235.643 444.106C235.408 444.523 235.104 444.885 234.733 445.19C234.365 445.491 233.944 445.725 233.47 445.891C232.996 446.056 232.479 446.139 231.919 446.139C231.038 446.139 230.252 445.93 229.563 445.513C228.873 445.092 228.33 444.49 227.932 443.708C227.538 442.926 227.34 441.993 227.34 440.909C227.34 439.822 227.539 438.889 227.937 438.11C228.335 437.328 228.878 436.728 229.568 436.31C230.257 435.889 231.041 435.679 231.919 435.679C232.46 435.679 232.963 435.757 233.431 435.913C233.901 436.065 234.324 436.29 234.698 436.589C235.073 436.884 235.383 437.245 235.628 437.673C235.873 438.097 236.039 438.582 236.125 439.129ZM238.664 446V435.818H240.2V440.243H245.276V435.818H246.817V446H245.276V441.56H240.2V446H238.664ZM250.614 446H248.984L252.648 435.818H254.422L258.087 446H256.456L253.577 437.668H253.498L250.614 446ZM250.888 442.013H256.177V443.305H250.888V442.013ZM260.257 435.818H262.121L265.363 443.733H265.482L268.724 435.818H270.588V446H269.126V438.632H269.032L266.029 445.985H264.816L261.813 438.627H261.719V446H260.257V435.818ZM273.521 446V435.818H277.151C277.943 435.818 278.599 435.962 279.119 436.251C279.64 436.539 280.029 436.933 280.288 437.434C280.546 437.931 280.675 438.491 280.675 439.114C280.675 439.741 280.545 440.304 280.283 440.805C280.024 441.302 279.633 441.696 279.109 441.988C278.589 442.276 277.934 442.42 277.146 442.42H274.65V441.118H277.006C277.507 441.118 277.913 441.032 278.224 440.859C278.536 440.684 278.765 440.445 278.911 440.143C279.056 439.842 279.129 439.499 279.129 439.114C279.129 438.73 279.056 438.388 278.911 438.09C278.765 437.792 278.534 437.558 278.219 437.389C277.908 437.22 277.497 437.136 276.987 437.136H275.058V446H273.521ZM284.713 435.818V446H283.176V435.818H284.713ZM296.494 440.909C296.494 441.996 296.295 442.931 295.898 443.713C295.5 444.492 294.955 445.092 294.262 445.513C293.573 445.93 292.789 446.139 291.911 446.139C291.029 446.139 290.242 445.93 289.549 445.513C288.86 445.092 288.316 444.49 287.918 443.708C287.521 442.926 287.322 441.993 287.322 440.909C287.322 439.822 287.521 438.889 287.918 438.11C288.316 437.328 288.86 436.728 289.549 436.31C290.242 435.889 291.029 435.679 291.911 435.679C292.789 435.679 293.573 435.889 294.262 436.31C294.955 436.728 295.5 437.328 295.898 438.11C296.295 438.889 296.494 439.822 296.494 440.909ZM294.973 440.909C294.973 440.08 294.839 439.383 294.57 438.816C294.305 438.246 293.941 437.815 293.477 437.523C293.016 437.228 292.494 437.081 291.911 437.081C291.324 437.081 290.8 437.228 290.339 437.523C289.879 437.815 289.514 438.246 289.246 438.816C288.981 439.383 288.848 440.08 288.848 440.909C288.848 441.738 288.981 442.437 289.246 443.007C289.514 443.574 289.879 444.005 290.339 444.3C290.8 444.591 291.324 444.737 291.911 444.737C292.494 444.737 293.016 444.591 293.477 444.3C293.941 444.005 294.305 443.574 294.57 443.007C294.839 442.437 294.973 441.738 294.973 440.909ZM307.328 435.818V446H305.916L300.74 438.533H300.646V446H299.11V435.818H300.531L305.712 443.295H305.806V435.818H307.328Z" fill="#1799FD"></path><line x1="399" y1="391.5" x2="135" y2="391.5" stroke="url(#paint1_linear_29_86)"></line><line x1="433" y1="294.5" x2="101" y2="294.5" stroke="url(#paint2_linear_29_86)"></line><line x1="466" y1="197.5" x2="68" y2="197.5" stroke="url(#paint3_linear_29_86)"></line><line x1="500" y1="100.5" x2="34" y2="100.5" stroke="url(#paint4_linear_29_86)"></line><rect x="427" y="183" width="62" height="28" rx="14" fill="#0F81FC"></rect><path d="M441.016 200.744V198.312H438.616V196.488H441.016V194.056H442.904V196.488H445.304V198.312H442.904V200.744H441.016ZM447.594 203V201.656C447.594 200.877 447.722 200.232 447.978 199.72C448.234 199.197 448.602 198.771 449.082 198.44C449.573 198.099 450.17 197.821 450.874 197.608L451.946 197.272C452.341 197.144 452.671 196.989 452.938 196.808C453.205 196.616 453.407 196.387 453.546 196.12C453.695 195.853 453.77 195.549 453.77 195.208V195.144C453.77 194.611 453.589 194.189 453.226 193.88C452.863 193.56 452.367 193.4 451.738 193.4C451.119 193.4 450.618 193.571 450.234 193.912C449.861 194.243 449.674 194.723 449.674 195.352V195.64H447.626V195.384C447.626 194.573 447.807 193.885 448.17 193.32C448.533 192.755 449.023 192.323 449.642 192.024C450.271 191.725 450.97 191.576 451.738 191.576C452.506 191.576 453.199 191.725 453.818 192.024C454.437 192.312 454.922 192.723 455.274 193.256C455.637 193.779 455.818 194.397 455.818 195.112V195.272C455.818 195.987 455.669 196.595 455.37 197.096C455.082 197.587 454.687 197.992 454.186 198.312C453.685 198.621 453.114 198.877 452.474 199.08L451.45 199.4C450.991 199.539 450.634 199.693 450.378 199.864C450.122 200.024 449.941 200.205 449.834 200.408C449.738 200.6 449.69 200.835 449.69 201.112V201.176H455.722V203H447.594ZM461.606 203.224C460.283 203.224 459.222 202.861 458.422 202.136C457.622 201.4 457.222 200.291 457.222 198.808V195.992C457.222 194.552 457.622 193.459 458.422 192.712C459.222 191.955 460.283 191.576 461.606 191.576C462.939 191.576 464.001 191.955 464.79 192.712C465.59 193.459 465.99 194.552 465.99 195.992V198.808C465.99 200.291 465.59 201.4 464.79 202.136C464.001 202.861 462.939 203.224 461.606 203.224ZM461.606 201.4C462.406 201.4 462.993 201.181 463.366 200.744C463.75 200.307 463.942 199.683 463.942 198.872V195.896C463.942 195.075 463.729 194.456 463.302 194.04C462.886 193.613 462.321 193.4 461.606 193.4C460.87 193.4 460.294 193.619 459.878 194.056C459.473 194.493 459.27 195.107 459.27 195.896V198.872C459.27 199.715 459.462 200.349 459.846 200.776C460.241 201.192 460.827 201.4 461.606 201.4ZM469.165 203.208L467.949 202.232L476.557 191.592L477.773 192.568L469.165 203.208ZM475.917 203.16C475.106 203.16 474.472 202.947 474.013 202.52C473.554 202.083 473.325 201.491 473.325 200.744V200.632C473.325 199.875 473.554 199.283 474.013 198.856C474.472 198.419 475.106 198.2 475.917 198.2C476.706 198.2 477.336 198.419 477.805 198.856C478.274 199.283 478.509 199.875 478.509 200.632V200.744C478.509 201.491 478.28 202.083 477.821 202.52C477.362 202.947 476.728 203.16 475.917 203.16ZM475.917 201.848C476.226 201.848 476.466 201.752 476.637 201.56C476.818 201.368 476.909 201.117 476.909 200.808V200.552C476.909 200.243 476.818 199.992 476.637 199.8C476.466 199.608 476.226 199.512 475.917 199.512C475.608 199.512 475.362 199.608 475.181 199.8C475.01 199.992 474.925 200.243 474.925 200.552V200.808C474.925 201.117 475.01 201.368 475.181 201.56C475.362 201.752 475.608 201.848 475.917 201.848ZM469.805 196.6C468.994 196.6 468.36 196.387 467.901 195.96C467.442 195.523 467.213 194.931 467.213 194.184V194.072C467.213 193.315 467.442 192.723 467.901 192.296C468.36 191.859 468.994 191.64 469.805 191.64C470.594 191.64 471.224 191.859 471.693 192.296C472.162 192.723 472.397 193.315 472.397 194.072V194.184C472.397 194.931 472.168 195.523 471.709 195.96C471.25 196.387 470.616 196.6 469.805 196.6ZM469.805 195.288C470.114 195.288 470.354 195.192 470.525 195C470.706 194.808 470.797 194.557 470.797 194.248V193.992C470.797 193.683 470.706 193.432 470.525 193.24C470.354 193.048 470.114 192.952 469.805 192.952C469.496 192.952 469.25 193.048 469.069 193.24C468.898 193.432 468.813 193.683 468.813 193.992V194.248C468.813 194.557 468.898 194.808 469.069 195C469.25 195.192 469.496 195.288 469.805 195.288Z" fill="#FFFFFF"></path><rect x="396" y="280" width="60" height="28" rx="14" fill="#0F81FC"></rect><path d="M410.016 297.744V295.312H407.616V293.488H410.016V291.056H411.904V293.488H414.304V295.312H411.904V297.744H410.016ZM420.05 300V290.304H419.762L418.258 293.856H416.114L418.402 288.8H422.098V300H420.05ZM428.34 300.224C427.018 300.224 425.956 299.861 425.156 299.136C424.356 298.4 423.956 297.291 423.956 295.808V292.992C423.956 291.552 424.356 290.459 425.156 289.712C425.956 288.955 427.018 288.576 428.34 288.576C429.674 288.576 430.735 288.955 431.524 289.712C432.324 290.459 432.724 291.552 432.724 292.992V295.808C432.724 297.291 432.324 298.4 431.524 299.136C430.735 299.861 429.674 300.224 428.34 300.224ZM428.34 298.4C429.14 298.4 429.727 298.181 430.1 297.744C430.484 297.307 430.676 296.683 430.676 295.872V292.896C430.676 292.075 430.463 291.456 430.036 291.04C429.62 290.613 429.055 290.4 428.34 290.4C427.604 290.4 427.028 290.619 426.612 291.056C426.207 291.493 426.004 292.107 426.004 292.896V295.872C426.004 296.715 426.196 297.349 426.58 297.776C426.975 298.192 427.562 298.4 428.34 298.4ZM435.899 300.208L434.683 299.232L443.291 288.592L444.507 289.568L435.899 300.208ZM442.651 300.16C441.841 300.16 441.206 299.947 440.747 299.52C440.289 299.083 440.059 298.491 440.059 297.744V297.632C440.059 296.875 440.289 296.283 440.747 295.856C441.206 295.419 441.841 295.2 442.651 295.2C443.441 295.2 444.07 295.419 444.539 295.856C445.009 296.283 445.243 296.875 445.243 297.632V297.744C445.243 298.491 445.014 299.083 444.555 299.52C444.097 299.947 443.462 300.16 442.651 300.16ZM442.651 298.848C442.961 298.848 443.201 298.752 443.371 298.56C443.553 298.368 443.643 298.117 443.643 297.808V297.552C443.643 297.243 443.553 296.992 443.371 296.8C443.201 296.608 442.961 296.512 442.651 296.512C442.342 296.512 442.097 296.608 441.915 296.8C441.745 296.992 441.659 297.243 441.659 297.552V297.808C441.659 298.117 441.745 298.368 441.915 298.56C442.097 298.752 442.342 298.848 442.651 298.848ZM436.539 293.6C435.729 293.6 435.094 293.387 434.635 292.96C434.177 292.523 433.947 291.931 433.947 291.184V291.072C433.947 290.315 434.177 289.723 434.635 289.296C435.094 288.859 435.729 288.64 436.539 288.64C437.329 288.64 437.958 288.859 438.427 289.296C438.897 289.723 439.131 290.315 439.131 291.072V291.184C439.131 291.931 438.902 292.523 438.443 292.96C437.985 293.387 437.35 293.6 436.539 293.6ZM436.539 292.288C436.849 292.288 437.089 292.192 437.259 292C437.441 291.808 437.531 291.557 437.531 291.248V290.992C437.531 290.683 437.441 290.432 437.259 290.24C437.089 290.048 436.849 289.952 436.539 289.952C436.23 289.952 435.985 290.048 435.803 290.24C435.633 290.432 435.547 290.683 435.547 290.992V291.248C435.547 291.557 435.633 291.808 435.803 292C435.985 292.192 436.23 292.288 436.539 292.288Z" fill="#FFFFFF"></path></g><defs><linearGradient id="paint0_linear_29_86" x1="262.5" y1="2" x2="262.5" y2="497.5" gradientUnits="userSpaceOnUse"><stop stop-color="#d3dde5"></stop><stop offset="0.690378" stop-color="#d3dde5"></stop><stop offset="1" stop-color="#d3dde5" stop-opacity="0"></stop></linearGradient><linearGradient id="paint1_linear_29_86" x1="135" y1="391.004" x2="399" y2="391.003" gradientUnits="userSpaceOnUse"><stop stop-color="#d3dde5" stop-opacity="0"></stop><stop offset="0.499033" stop-color="#d3dde5"></stop><stop offset="1" stop-color="#d3dde5" stop-opacity="0"></stop></linearGradient><linearGradient id="paint2_linear_29_86" x1="101" y1="294.004" x2="433" y2="294.003" gradientUnits="userSpaceOnUse"><stop stop-color="#d3dde5" stop-opacity="0"></stop><stop offset="0.499033" stop-color="#d3dde5"></stop><stop offset="1" stop-color="#d3dde5" stop-opacity="0"></stop></linearGradient><linearGradient id="paint3_linear_29_86" x1="68" y1="197.004" x2="466" y2="197.003" gradientUnits="userSpaceOnUse"><stop stop-color="#d3dde5" stop-opacity="0"></stop><stop offset="0.499033" stop-color="#d3dde5"></stop><stop offset="1" stop-color="#d3dde5" stop-opacity="0"></stop></linearGradient><linearGradient id="paint4_linear_29_86" x1="34" y1="100.004" x2="500" y2="100.002" gradientUnits="userSpaceOnUse"><stop stop-color="#d3dde5" stop-opacity="0"></stop><stop offset="0.479167" stop-color="#d3dde5"></stop><stop offset="1" stop-color="#d3dde5" stop-opacity="0"></stop><stop offset="1" stop-color="#d3dde5" stop-opacity="0"></stop></linearGradient><clipPath id="clip0_29_86"><rect width="534" height="489" fill="white"></rect></clipPath></defs></svg>