<svg width="150" height="150" viewBox="0 0 430 430" fill="none" xmlns="http://www.w3.org/2000/svg">
<path d="M392.5 107C391.1 105.1 388.9 104 386.5 104C385.2 104 367.6 104 347.2 104L104 103.9C98.8 82.9 83.4 67 67.4 67H42C38.7 67 36 69.7 36 73C36 76.3 38.7 79 42 79H67.4C78.4 79 90.2 93.4 93.1 110.5L93.2 110.8C93.2 110.9 93.2 110.9 93.2 111L120.4 272.5C120.4 272.5 120.4 272.5 120.3 272.5C120.1 272.6 119.9 272.7 119.7 272.8C119.5 272.9 119.4 273 119.2 273.1C119 273.2 118.8 273.3 118.6 273.4C118.4 273.5 118.2 273.6 118 273.7C117.8 273.8 117.6 273.9 117.4 274C117.2 274.1 117 274.2 116.8 274.3C116.6 274.4 116.4 274.5 116.2 274.7C116 274.8 115.8 274.9 115.6 275.1C115.4 275.2 115.2 275.4 115 275.5C114.8 275.6 114.6 275.8 114.4 275.9C114.2 276.1 114 276.2 113.8 276.4C113.6 276.5 113.5 276.7 113.3 276.8C113.1 277 112.9 277.2 112.7 277.4C112.6 277.5 112.4 277.7 112.3 277.8C112 278.1 111.7 278.5 111.4 278.8L111.3 278.9C106.5 284.8 105.3 292.1 108 297.8C109.6 301.1 112.8 304.8 119.5 306.8C113.7 312.9 110.2 321 110.2 330C110.2 348.6 125.3 363.8 144 363.8C162.7 363.8 177.8 348.7 177.8 330C177.8 321.7 174.8 314.1 169.8 308.2H282.4C277.4 314.1 274.4 321.7 274.4 330C274.4 348.6 289.5 363.8 308.2 363.8C326.9 363.8 342 348.7 342 330C342 311.3 326.9 296.2 308.2 296.2C307.8 296.2 307.4 296.2 307 296.2C306.8 296.2 306.6 296.2 306.4 296.2H131.3C123.6 296.2 120 294.3 119.1 292.6C118.4 291.1 119.1 288.5 120.9 286.4C121 286.2 121.2 286.1 121.3 286C121.4 285.9 121.5 285.8 121.5 285.8C121.6 285.7 121.6 285.7 121.7 285.6C121.8 285.6 121.8 285.5 121.9 285.5C122 285.4 122.1 285.3 122.2 285.2C124.3 283.5 127.2 282.6 128.4 282.3C128.5 282.3 128.7 282.2 128.8 282.2C128.9 282.2 128.9 282.2 129 282.1C129.2 282 129.4 282 129.6 281.9C131.1 281.4 136.9 281 142.1 280.7C148.6 280.3 156.6 279.7 166 278.7L311.7 262.1C334.5 259.5 357.4 240.2 363.8 218.1L393.8 114.8C394.6 111.9 394.1 109.1 392.5 107ZM166 330.2C166 342.2 156.2 352 144.2 352C132.2 352 122.4 342.2 122.4 330.2C122.4 318.2 132.2 308.4 144.2 308.4C156.2 308.4 166 318.2 166 330.2ZM330.2 330.2C330.2 342.2 320.4 352 308.4 352C296.4 352 286.6 342.2 286.6 330.2C286.6 318.2 296.4 308.4 308.4 308.4C320.4 308.4 330.2 318.2 330.2 330.2ZM352.3 214.8C347.3 232 328.1 248.2 310.3 250.2L164.6 266.8C155.5 267.8 147.6 268.4 141.3 268.8C137.4 269.1 134.4 269.3 132.1 269.5L106.2 115.9L347.2 116C361.2 116 373.8 116 380.8 116L352.3 214.8Z" fill="url(#paint0_linear_2096_13600)"/>
<defs>
<linearGradient id="paint0_linear_2096_13600" x1="66.2639" y1="40.2608" x2="356.038" y2="330.157" gradientUnits="userSpaceOnUse">
<stop stop-color="#CB5EEE"/>
<stop offset="1" stop-color="#4BE1EC"/>
</linearGradient>
</defs>
</svg>

